<svg width="2813" height="514" viewBox="0 0 2813 514" fill="none" xmlns="http://www.w3.org/2000/svg">
<path d="M10.9756 475.239C1.11952 480.225 -2.82805 492.257 2.15844 502.114C7.14494 511.97 19.1772 515.917 29.0333 510.931L20.0044 493.085L10.9756 475.239ZM2803.85 185.599C2812.99 179.405 2815.38 166.969 2809.19 157.824L2708.25 8.78685C2702.06 -0.358812 2689.63 -2.75169 2680.48 3.44223C2671.33 9.63612 2668.94 22.0713 2675.13 31.2169L2764.86 163.694L2632.38 253.415C2623.23 259.609 2620.84 272.044 2627.03 281.189C2633.23 290.335 2645.66 292.728 2654.81 286.534L2803.85 185.599ZM20.0044 493.085L29.0333 510.931C886.166 77.2803 1835.99 5.32273 2788.85 188.679L2792.63 169.039L2796.41 149.399C1836.78 -35.2593 877.606 36.7832 10.9756 475.239L20.0044 493.085Z" fill="#A1A1A1"/>
</svg>
